<svg version="1.2" baseProfile="tiny" viewBox="0 0 16.106 18.000" xmlns:xlink="http://www.w3.org/1999/xlink" xmlns="http://www.w3.org/2000/svg">
<path style="fill:#ffffff;" d="M8.431,0H0.635C0.309,0,0.048,0.262,0.048,0.59v5.803   c0,0.324,0.261,0.59,0.587,0.59h7.796c0.32,0,0.586-0.267,0.586-0.59V0.59C9.017,0.262,8.751,0,8.431,0z M8.375,6.247   c0,0.077-0.064,0.144-0.142,0.144h-7.4c-0.078,0-0.141-0.066-0.141-0.144V0.737c0-0.08,0.063-0.143,0.141-0.143h7.4   c0.078,0,0.142,0.063,0.142,0.143V6.247z M1.175,5.969V1.015h6.714v4.954H1.175z M6.789,9.077H2.274c-0.33,0-0.281-0.537,0-0.537   c0.282,0,0.205,0,0.588,0s0.432-0.467,0.509-1.208h2.322C5.769,8.073,5.822,8.54,6.205,8.54c0.379,0,0.306,0,0.583,0   C7.068,8.54,7.123,9.077,6.789,9.077z M15.884,11.032l-4.444-3.523c-0.286-0.236-0.53-0.122-0.53,0.253v2.09H6.283   c-0.321,0-0.591,0.236-0.652,0.542v1.321h0.635l-0.026-1.189l4.67-0.044h0.627V8.383l3.869,3.069l-3.869,3.059v-1.896h-0.635   c0.017,0.069,0.025,0.14,0.025,0.21v2.046c0,0.053,0,0.097-0.018,0.149v0.122c0,0.367,0.244,0.48,0.53,0.254l4.444-3.523   C16.18,11.635,16.18,11.259,15.884,11.032z M10.491,12.824v2.046c0,0.366-0.303,0.665-0.669,0.665H5.196v2.089   C5.196,17.869,5.091,18,4.944,18c-0.078,0-0.174-0.034-0.279-0.113l-4.443-3.532c-0.296-0.228-0.296-0.603,0-0.83l4.443-3.533   c0.104-0.08,0.201-0.114,0.279-0.114c0.147,0,0.252,0.131,0.252,0.366v1.907h4.626c0.296,0,0.548,0.193,0.635,0.463   C10.483,12.676,10.491,12.754,10.491,12.824z"/>
</svg>