<svg version="1.2" baseProfile="tiny" viewBox="0 0 16 16" xmlns:xlink="http://www.w3.org/1999/xlink" xmlns="http://www.w3.org/2000/svg">
<path style="fill:#ffffff;" d="M16 8C16 12.4183 12.4183 16 8 16C3.58172 16 0 12.4183 0 8C0 3.58172 3.58172 0 8 0C12.4183 0 16 3.58172 16 8ZM11.679 4.3485C11.481 4.1505 11.161 4.1505 10.963 4.3485L8.01376 7.29868L5.06451 4.3485C4.86651 4.1505 4.54651 4.1505 4.34851 4.3485C4.15051 4.5465 4.15051 4.8675 4.34851 5.0655L7.29776 8.01475L4.34851 10.963C4.15051 11.161 4.15051 11.481 4.34851 11.679C4.44751 11.778 4.57751 11.827 4.70651 11.827C4.83651 11.827 4.96551 11.778 5.06451 11.679L8.01376 8.73075L10.963 11.679C11.062 11.778 11.191 11.827 11.321 11.827C11.45 11.827 11.58 11.778 11.679 11.679C11.877 11.481 11.877 11.161 11.679 10.963L8.72976 8.01475L11.679 5.0655C11.877 4.8675 11.877 4.5465 11.679 4.3485Z"/>
</svg>