<svg version="1.2" baseProfile="tiny" viewBox="0 0 16 16" xmlns:xlink="http://www.w3.org/1999/xlink" xmlns="http://www.w3.org/2000/svg">
<path style="fill:#ffffff;" d="M1.105,14.07H14.895L8,2.127L1.105,14.07ZM8.474,12.609C8.343,12.736,8.179,12.803,7.997,12.803C7.813,12.803,7.648,12.734,7.518,12.604C7.388,12.476,7.32,12.311,7.32,12.125C7.32,11.943,7.387,11.778,7.513,11.649C7.638,11.518,7.807,11.445,7.989,11.443H7.991C8.175,11.446,8.352,11.518,8.478,11.642C8.609,11.773,8.678,11.94,8.678,12.125C8.679,12.312,8.608,12.479,8.474,12.609ZM9.422,5.9L9.442,5.921C9.77,6.275,9.937,6.745,9.937,7.316C9.937,7.708,9.856,8.063,9.696,8.374C9.554,8.654,9.295,8.883,8.937,9.2L8.838,9.287C8.5,9.548,8.382,9.752,8.379,10.147C8.379,10.148,8.377,10.257,8.342,10.337C8.268,10.517,8.091,10.644,7.884,10.644C7.674,10.644,7.49,10.515,7.426,10.328C7.395,10.239,7.399,10.114,7.401,10.096C7.416,9.781,7.473,9.596,7.583,9.356C7.7,9.104,7.911,8.838,8.212,8.562C8.373,8.415,8.488,8.325,8.573,8.26C8.647,8.202,8.695,8.164,8.722,8.129C8.805,8.013,8.864,7.895,8.899,7.778C8.938,7.654,8.957,7.498,8.957,7.311C8.957,6.99,8.876,6.743,8.716,6.575C8.562,6.412,8.337,6.33,8.046,6.33C7.725,6.33,7.476,6.418,7.306,6.593C7.132,6.767,7.042,7.005,7.037,7.296C7.036,7.347,7.024,7.396,7.004,7.44C6.934,7.627,6.757,7.761,6.546,7.761C6.333,7.761,6.156,7.623,6.087,7.434C6.067,7.387,6.061,7.24,6.062,7.226C6.082,6.683,6.272,6.232,6.637,5.887C7.012,5.535,7.485,5.356,8.046,5.356C8.613,5.356,9.076,5.539,9.422,5.9Z"/>
</svg>