<svg version="1.2" baseProfile="tiny" viewBox="0 0 16 16" xmlns:xlink="http://www.w3.org/1999/xlink" xmlns="http://www.w3.org/2000/svg">
<path style="fill:#ffffff;" d="M10.963 4.34851C11.161 4.15051 11.481 4.15051 11.679 4.34851C11.877 4.54651 11.877 4.86751 11.679 5.06551L8.72976 8.01476L11.679 10.963C11.877 11.161 11.877 11.481 11.679 11.679C11.58 11.778 11.45 11.827 11.321 11.827C11.191 11.827 11.062 11.778 10.963 11.679L8.01376 8.73076L5.06451 11.679C4.96551 11.778 4.83651 11.827 4.70651 11.827C4.57751 11.827 4.44751 11.778 4.34851 11.679C4.15051 11.481 4.15051 11.161 4.34851 10.963L7.29776 8.01476L4.34851 5.06551C4.15051 4.86751 4.15051 4.54651 4.34851 4.34851C4.54651 4.15051 4.86651 4.15051 5.06451 4.34851L8.01376 7.29869L10.963 4.34851Z"/>
</svg>