<svg width="32" height="32" viewBox="0 0 32 32" fill="none" xmlns="http://www.w3.org/2000/svg">
<path d="M29.416 22.257H26.016V15.854C26.016 15.448 25.686 15.118 25.28 15.118H16.736V9.742H20.135C20.541 9.742 20.871 9.412 20.871 9.006V0.736C20.871 0.33 20.541 0 20.135 0H11.864C11.458 0 11.128 0.33 11.128 0.736V9.006C11.128 9.412 11.458 9.742 11.864 9.742H15.264V15.118H6.71899C6.31299 15.118 5.98299 15.448 5.98299 15.854V22.257H2.58399C2.17799 22.257 1.84799 22.587 1.84799 22.993V31.264C1.84799 31.67 2.17799 32 2.58399 32H10.854C11.26 32 11.59 31.67 11.59 31.264V22.993C11.59 22.587 11.26 22.257 10.854 22.257H7.45499V16.59H24.544V22.257H21.145C20.739 22.257 20.409 22.587 20.409 22.993V31.264C20.409 31.67 20.739 32 21.145 32H29.416C29.822 32 30.152 31.67 30.152 31.264V22.993C30.152 22.587 29.822 22.257 29.416 22.257ZM10.119 23.729V30.529H3.31999V23.729H10.119ZM12.6 8.27V1.471H19.399V8.27H12.6ZM28.68 30.529H21.881V23.729H28.68V30.529Z" fill="#6A6A6A"/>
</svg>
