<svg width="16" height="16" viewBox="0 0 16 16" fill="none" xmlns="http://www.w3.org/2000/svg">
<g clip-path="url(#clip0_518_2097)">
<path d="M1.105 14.07H14.895L8 2.127L1.105 14.07ZM8.474 12.609C8.343 12.736 8.179 12.803 7.997 12.803C7.813 12.803 7.648 12.734 7.518 12.604C7.388 12.476 7.32 12.311 7.32 12.125C7.32 11.943 7.387 11.778 7.513 11.649C7.638 11.518 7.807 11.445 7.989 11.443H7.991C8.175 11.446 8.352 11.518 8.478 11.642C8.609 11.773 8.678 11.94 8.678 12.125C8.679 12.312 8.608 12.479 8.474 12.609ZM9.422 5.9L9.442 5.921C9.77 6.275 9.937 6.745 9.937 7.316C9.937 7.708 9.856 8.063 9.696 8.374C9.554 8.654 9.295 8.883 8.937 9.2L8.838 9.287C8.5 9.548 8.382 9.752 8.379 10.147C8.379 10.148 8.377 10.257 8.342 10.337C8.268 10.517 8.091 10.644 7.884 10.644C7.674 10.644 7.49 10.515 7.426 10.328C7.395 10.239 7.399 10.114 7.401 10.096C7.416 9.781 7.473 9.596 7.583 9.356C7.7 9.104 7.911 8.838 8.212 8.562C8.373 8.415 8.488 8.325 8.573 8.26C8.647 8.202 8.695 8.164 8.722 8.129C8.805 8.013 8.864 7.895 8.899 7.778C8.938 7.654 8.957 7.498 8.957 7.311C8.957 6.99 8.876 6.743 8.716 6.575C8.562 6.412 8.337 6.33 8.046 6.33C7.725 6.33 7.476 6.418 7.306 6.593C7.132 6.767 7.042 7.005 7.037 7.296C7.036 7.347 7.024 7.396 7.004 7.44C6.934 7.627 6.757 7.761 6.546 7.761C6.333 7.761 6.156 7.623 6.087 7.434C6.067 7.387 6.061 7.24 6.062 7.226C6.082 6.683 6.272 6.232 6.637 5.887C7.012 5.535 7.485 5.356 8.046 5.356C8.613 5.356 9.076 5.539 9.422 5.9Z" fill="white"/>
<path d="M15.904 13.935L8.621 1.321C8.366 0.877998 7.633 0.878998 7.38 1.32L0.0950033 13.936C-0.0319967 14.157 -0.0319967 14.431 0.0960033 14.652C0.224003 14.873 0.462003 15.01 0.717003 15.01H15.282C15.538 15.01 15.776 14.873 15.903 14.652C16.032 14.432 16.032 14.157 15.904 13.935ZM1.105 14.07L8 2.127L14.895 14.069H1.105V14.07Z" fill="black"/>
<path d="M7.992 11.443H7.99C7.808 11.445 7.639 11.518 7.514 11.649C7.388 11.779 7.321 11.943 7.321 12.125C7.321 12.311 7.389 12.476 7.519 12.604C7.649 12.734 7.814 12.803 7.998 12.803C8.18 12.803 8.344 12.736 8.475 12.609C8.609 12.479 8.68 12.312 8.68 12.126C8.68 11.941 8.611 11.775 8.48 11.643C8.353 11.518 8.176 11.446 7.992 11.443Z" fill="black"/>
<path d="M6.06201 7.226C6.06101 7.241 6.06701 7.387 6.08701 7.434C6.15601 7.623 6.33401 7.761 6.54601 7.761C6.75601 7.761 6.93401 7.626 7.00401 7.44C7.02401 7.396 7.03601 7.347 7.03701 7.296C7.04201 7.005 7.13201 6.767 7.30601 6.591C7.47601 6.416 7.72501 6.328 8.04601 6.328C8.33701 6.328 8.56301 6.411 8.71601 6.573C8.87601 6.741 8.95701 6.988 8.95701 7.309C8.95701 7.496 8.93801 7.652 8.89901 7.776C8.86401 7.895 8.80501 8.012 8.72201 8.128C8.69501 8.164 8.64701 8.202 8.57301 8.26C8.48801 8.325 8.37301 8.415 8.21201 8.562C7.91101 8.838 7.70001 9.104 7.58301 9.356C7.47301 9.595 7.41601 9.77999 7.40101 10.096C7.39901 10.114 7.39601 10.239 7.42601 10.328C7.49001 10.515 7.67501 10.644 7.88401 10.644C8.09101 10.644 8.26701 10.517 8.34201 10.337C8.37801 10.257 8.37901 10.148 8.37901 10.147C8.38201 9.752 8.49901 9.54799 8.83701 9.28699L8.93701 9.2C9.29501 8.883 9.55401 8.654 9.69701 8.375C9.85701 8.064 9.93801 7.709 9.93801 7.317C9.93801 6.745 9.77101 6.276 9.44301 5.922L9.42201 5.9C9.07601 5.539 8.61301 5.356 8.04601 5.356C7.48501 5.356 7.01201 5.535 6.63701 5.887C6.27201 6.232 6.08201 6.683 6.06201 7.226Z" fill="black"/>
</g>
<defs>
<clipPath id="clip0_518_2097">
<rect width="16" height="16" fill="white"/>
</clipPath>
</defs>
</svg>
